<svg width="24" height="24" viewBox="0 0 24 24" fill="none" xmlns="http://www.w3.org/2000/svg">
<path fill-rule="evenodd" clip-rule="evenodd" d="M19 18.0347C19 18.5867 18.551 19.0347 18 19.0347H6C5.449 19.0347 5 18.5867 5 18.0347V11.0347H19V18.0347ZM8 6.03467C8.552 6.03467 9 6.48167 9 7.03467C9 7.58767 8.552 8.03467 8 8.03467C7.448 8.03467 7 7.58767 7 7.03467C7 6.48167 7.448 6.03467 8 6.03467ZM12 6.03467C12.552 6.03467 13 6.48167 13 7.03467C13 7.58767 12.552 8.03467 12 8.03467C11.448 8.03467 11 7.58767 11 7.03467C11 6.48167 11.448 6.03467 12 6.03467ZM18 3.03467H6C4.346 3.03467 3 4.38067 3 6.03467V9.03467V11.0347V18.0347C3 19.6887 4.346 21.0347 6 21.0347H18C19.654 21.0347 21 19.6887 21 18.0347V11.0347V9.03467V6.03467C21 4.38067 19.654 3.03467 18 3.03467Z" fill="#443434" fill-opacity="0.9"/>
</svg>
