<svg width="114" height="114" viewBox="0 0 114 114" fill="none" xmlns="http://www.w3.org/2000/svg">
<g filter="url(#filter0_dd_0_7063)">
<rect x="17.3815" y="40.9916" width="56.0289" height="56.0289" rx="16" transform="rotate(-45 17.3815 40.9916)" fill="#51B0BA"/>
<path fill-rule="evenodd" clip-rule="evenodd" d="M64.4058 40.3934H58.4027V34.3903C58.4027 33.837 57.9545 33.3898 57.4022 33.3898C56.8499 33.3898 56.4017 33.837 56.4017 34.3903V40.3934H50.3986C49.8463 40.3934 49.3981 40.8407 49.3981 41.3939C49.3981 41.9472 49.8463 42.3945 50.3986 42.3945H56.4017V48.3976C56.4017 48.9508 56.8499 49.3981 57.4022 49.3981C57.9545 49.3981 58.4027 48.9508 58.4027 48.3976V42.3945H64.4058C64.9581 42.3945 65.4064 41.9472 65.4064 41.3939C65.4064 40.8407 64.9581 40.3934 64.4058 40.3934" fill="#FBFBFB"/>
</g>
<defs>
<filter id="filter0_dd_0_7063" x="0" y="0" width="114" height="114" filterUnits="userSpaceOnUse" color-interpolation-filters="sRGB">
<feFlood flood-opacity="0" result="BackgroundImageFix"/>
<feColorMatrix in="SourceAlpha" type="matrix" values="0 0 0 0 0 0 0 0 0 0 0 0 0 0 0 0 0 0 127 0" result="hardAlpha"/>
<feOffset dy="16"/>
<feGaussianBlur stdDeviation="12"/>
<feColorMatrix type="matrix" values="0 0 0 0 0.203922 0 0 0 0 0.235294 0 0 0 0 0.266667 0 0 0 0.12 0"/>
<feBlend mode="normal" in2="BackgroundImageFix" result="effect1_dropShadow_0_7063"/>
<feColorMatrix in="SourceAlpha" type="matrix" values="0 0 0 0 0 0 0 0 0 0 0 0 0 0 0 0 0 0 127 0" result="hardAlpha"/>
<feOffset dy="2"/>
<feGaussianBlur stdDeviation="4"/>
<feColorMatrix type="matrix" values="0 0 0 0 0.458824 0 0 0 0 0.513726 0 0 0 0 0.556863 0 0 0 0.04 0"/>
<feBlend mode="normal" in2="effect1_dropShadow_0_7063" result="effect2_dropShadow_0_7063"/>
<feBlend mode="normal" in="SourceGraphic" in2="effect2_dropShadow_0_7063" result="shape"/>
</filter>
</defs>
</svg>
