<svg width="48" height="16" viewBox="0 0 48 16" fill="none" xmlns="http://www.w3.org/2000/svg">
<path fill-rule="evenodd" clip-rule="evenodd" d="M3.33035 13.7106C3.56825 12.7404 3.80062 11.6569 4.10722 10.5949C4.28174 9.99068 4.15537 9.59711 3.65179 9.21438C2.87131 8.62154 2.1186 7.98436 1.4131 7.30474C1.17977 7.07998 0.958242 6.61123 1.04122 6.35373C1.12724 6.08691 1.57106 5.80981 1.88946 5.76641C2.9225 5.62577 3.96886 5.56563 5.01218 5.52433C5.52679 5.50397 5.8018 5.31746 5.98108 4.82168C6.32479 3.87143 6.70181 2.92765 7.15038 2.02365C7.30625 1.70943 7.71981 1.32252 8.00681 1.32956C8.3058 1.33698 8.70261 1.72409 8.86552 2.04306C9.26671 2.8285 9.62355 3.65066 9.87534 4.49491C10.1161 5.30166 10.593 5.57115 11.384 5.58447C12.2686 5.59951 13.1587 5.66383 14.0319 5.80048C14.3828 5.85548 14.9281 6.12078 14.9686 6.36058C15.0264 6.70353 14.7933 7.20235 14.5229 7.4726C13.853 8.14176 13.1082 8.7403 12.3603 9.32457C11.9106 9.6759 11.7311 10.005 11.9245 10.6048C12.2242 11.5349 12.4416 12.4979 12.6066 13.4621C12.6663 13.8115 12.5885 14.4062 12.3713 14.5275C12.0746 14.6934 11.5214 14.6346 11.1902 14.4597C10.2695 13.9731 9.42752 13.3378 8.50867 12.8471C8.22739 12.6968 7.73066 12.6976 7.44842 12.8473C6.50007 13.3505 5.61891 13.9788 4.68293 14.5075C3.98066 14.9041 3.34596 14.5535 3.33035 13.7106Z" fill="#333333"/>
<path fill-rule="evenodd" clip-rule="evenodd" d="M46.4069 7.77102C46.4789 6.96502 45.9279 6.72802 45.6649 6.72802H41.9739L41.9239 6.73102C41.7069 6.73302 41.5619 6.52902 41.6119 6.28602C41.6659 5.76102 41.9239 4.22002 41.9239 3.90602C41.9239 3.55402 41.8699 3.19802 41.8079 2.84902C41.7479 2.50902 41.6209 2.18902 41.3829 1.93002C41.1269 1.65202 40.8109 1.55402 40.4509 1.67402C40.0969 1.79102 39.8619 2.03002 39.8439 2.42702C39.8179 2.96702 39.8089 3.50902 39.7869 4.05102C39.7846 4.12522 39.7658 4.19798 39.7319 4.26402C39.1989 5.22202 38.6319 6.03802 38.1079 7.00002C37.9849 7.22702 37.8469 7.28802 37.5809 7.35002C37.3309 7.38002 36.5679 7.62302 36.5679 7.62302C36.433 7.66953 36.3152 7.75533 36.2294 7.86939C36.1437 7.98344 36.0941 8.12053 36.0869 8.26302V12.413C36.0869 12.686 36.2929 12.985 36.5469 13.083C36.5469 13.083 37.4749 13.438 37.5809 13.5C38.1909 13.864 38.6309 13.964 39.2459 14.32C39.3023 14.3536 39.3663 14.3725 39.4319 14.375C40.9369 14.378 42.2169 14.375 43.7219 14.375C43.9399 14.375 44.6559 14.28 44.8389 13.5C45.0239 12.715 44.2739 12.473 44.2739 12.473C44.2739 12.473 45.2029 12.586 45.3559 11.719C45.4999 10.905 44.7939 10.661 44.7629 10.649C45.0499 10.599 45.7029 10.46 45.8399 9.85602C45.9799 9.24002 45.5499 8.84602 45.3179 8.68802C45.6679 8.68002 46.3449 8.46402 46.4069 7.77102V7.77102ZM33.5869 12.996C33.5868 13.0617 33.5998 13.1268 33.6253 13.1874C33.6508 13.2479 33.6882 13.3028 33.7353 13.3486C33.7825 13.3944 33.8383 13.4302 33.8996 13.454C33.9608 13.4778 34.0262 13.489 34.0919 13.487H35.0819C35.2134 13.4876 35.34 13.4366 35.4344 13.345C35.5288 13.2534 35.5835 13.1285 35.5869 12.997V7.97702C35.5869 7.91139 35.5738 7.84642 35.5482 7.78597C35.5227 7.72553 35.4852 7.67083 35.4381 7.62513C35.391 7.57942 35.3352 7.54365 35.274 7.51992C35.2128 7.4962 35.1475 7.48501 35.0819 7.48702H34.0919C33.9604 7.48645 33.8339 7.53743 33.7395 7.62902C33.6451 7.72061 33.5903 7.84554 33.5869 7.97702V12.995V12.996Z" fill="#333333"/>
</svg>
