<svg width="30" height="30" viewBox="0 0 30 30" fill="none" xmlns="http://www.w3.org/2000/svg">
<path fill-rule="evenodd" clip-rule="evenodd" d="M24.375 15L24.9274 15.5524C25.6567 16.2817 26.25 17.7136 26.25 18.748V20.627C26.25 21.67 25.4085 22.5 24.3704 22.5H5.62964C4.60455 22.5 3.75 21.6614 3.75 20.627V18.748C3.75 17.705 4.34214 16.2829 5.07258 15.5524L5.625 15V13.095C5.625 8.54813 8.865 4.79062 13.1625 3.93562C13.1569 3.87187 13.125 3.81563 13.125 3.75C13.125 2.71875 13.9687 1.875 15 1.875C16.0313 1.875 16.875 2.71875 16.875 3.75C16.875 3.81563 16.8431 3.87187 16.8375 3.93562C21.135 4.79062 24.375 8.57625 24.375 13.125V15ZM18.75 24.375C18.75 26.445 17.0719 28.125 15 28.125C12.9281 28.125 11.25 26.445 11.25 24.375H18.75Z" fill="#316A70"/>
</svg>
