<svg width="25" height="26" viewBox="0 0 25 26" fill="none" xmlns="http://www.w3.org/2000/svg">
<g filter="url(#filter0_d_0_3251)">
<path fill-rule="evenodd" clip-rule="evenodd" d="M12.715 2.30071L20.424 10.1847C20.79 10.5607 21 11.0847 21 11.6237V19.9997C21 21.1027 20.153 21.9997 19.112 21.9997H16V12.9997C16 12.4477 15.553 11.9997 15 11.9997H9C8.447 11.9997 8 12.4477 8 12.9997V21.9997H4.889C3.848 21.9997 3 21.1027 3 19.9997V11.6237C3 11.0847 3.21 10.5607 3.575 10.1857L11.285 2.30071C11.662 1.91571 12.338 1.91571 12.715 2.30071ZM14.0002 21.0001H10.0002V14.0001H14.0002V21.0001Z" fill="#1B7A84"/>
</g>
<defs>
<filter id="filter0_d_0_3251" x="0" y="0" width="28" height="28" filterUnits="userSpaceOnUse" color-interpolation-filters="sRGB">
<feFlood flood-opacity="0" result="BackgroundImageFix"/>
<feColorMatrix in="SourceAlpha" type="matrix" values="0 0 0 0 0 0 0 0 0 0 0 0 0 0 0 0 0 0 127 0" result="hardAlpha"/>
<feOffset dx="2" dy="2"/>
<feGaussianBlur stdDeviation="1"/>
<feComposite in2="hardAlpha" operator="out"/>
<feColorMatrix type="matrix" values="0 0 0 0 0.727059 0 0 0 0 0.876078 0 0 0 0 0.891765 0 0 0 1 0"/>
<feBlend mode="normal" in2="BackgroundImageFix" result="effect1_dropShadow_0_3251"/>
<feBlend mode="normal" in="SourceGraphic" in2="effect1_dropShadow_0_3251" result="shape"/>
</filter>
</defs>
</svg>
