<svg width="24" height="24" viewBox="0 0 24 24" fill="none" xmlns="http://www.w3.org/2000/svg">
<circle cx="12" cy="12" r="12" fill="#EB5757"/>
<path d="M11.2549 16.109C12.3028 16.109 13.2812 15.7681 14.0766 15.2L17.0687 18.1921C17.2076 18.3309 17.3906 18.4004 17.58 18.4004C17.9903 18.4004 18.287 18.0848 18.287 17.6808C18.287 17.4914 18.2239 17.3146 18.085 17.1758L15.1118 14.1963C15.7368 13.3757 16.1092 12.3594 16.1092 11.2547C16.1092 8.5845 13.9251 6.40039 11.2549 6.40039C8.57844 6.40039 6.40063 8.5845 6.40063 11.2547C6.40063 13.9248 8.57844 16.109 11.2549 16.109ZM11.2549 15.0611C9.1655 15.0611 7.4485 13.3378 7.4485 11.2547C7.4485 9.17156 9.1655 7.44826 11.2549 7.44826C13.338 7.44826 15.0613 9.17156 15.0613 11.2547C15.0613 13.3378 13.338 15.0611 11.2549 15.0611Z" fill="white"/>
</svg>
