<svg width="24" height="24" viewBox="0 0 24 24" fill="none" xmlns="http://www.w3.org/2000/svg">
<path fill-rule="evenodd" clip-rule="evenodd" d="M20.2739 8.66651C19.9079 6.11551 17.8849 4.09251 15.3339 3.72651V8.66651H20.2739ZM21.1669 10.3325H14.5009C14.0409 10.3325 13.6669 9.96051 13.6669 9.49951V2.83251C13.6669 2.37251 14.0409 1.99951 14.5009 1.99951C18.6359 1.99951 22.0009 5.36451 22.0009 9.49951C22.0009 9.96051 21.6269 10.3325 21.1669 10.3325ZM12.9349 11.9775H21.0839C21.6259 11.9775 22.0499 12.4495 21.9959 12.9885C21.4519 18.4145 16.5799 22.5665 10.8819 21.9365C6.29694 21.4305 2.56994 17.7035 2.06294 13.1185C1.43494 7.42051 5.58494 2.54751 11.0119 2.00451C11.5519 1.95051 12.0229 2.37351 12.0229 2.91551V11.0665C12.0229 11.5695 12.4309 11.9775 12.9349 11.9775Z" fill="#BDBDBD"/>
</svg>
