<svg width="200" height="200" viewBox="0 0 200 200" fill="none" xmlns="http://www.w3.org/2000/svg">
<rect width="200" height="200" fill="white"/>
<path opacity="0.16" d="M101.573 199.999C137.918 199.999 167.381 196.349 167.381 191.847C167.381 187.344 137.918 183.694 101.573 183.694C65.2275 183.694 35.764 187.344 35.764 191.847C35.764 196.349 65.2275 199.999 101.573 199.999Z" fill="black"/>
<path opacity="0.07" d="M167.585 21.6086C163.089 17.5209 158.211 13.8885 153.02 10.763L110.194 76.1238L168.388 22.358C168.126 22.1053 167.86 21.8657 167.585 21.6086ZM129.26 1.30314C122.582 -0.109212 115.719 -0.375794 108.954 0.514457L110.194 76.1195L129.26 1.30314ZM84.3753 10.3011C80.285 13.2186 76.5418 16.608 73.2206 20.4016C72.0593 21.7233 70.8652 23.048 69.6382 24.3755L110.199 76.1282L84.3753 10.3011ZM49.2422 43.5132C46.461 45.7019 43.5729 47.7467 40.5887 49.6396C34.1662 53.6746 27.2374 56.6681 20.7376 61.8142L110.194 76.1282L49.2422 43.5132ZM0.161392 103.702C-0.62373 115.497 1.57718 128.264 5.83743 139.811L110.194 76.1282L0.161392 103.702ZM110.194 76.1282L35.6935 176.274C46.5307 181.067 59.5603 181.939 73.0618 180.884L110.194 76.1282ZM110.194 76.1282L113.738 174.291C121.396 173.459 130.749 173.716 140.436 173.294L110.194 76.1282ZM193.829 144.147L110.194 76.1282L175.312 165.285C182.893 160.975 189.41 154.356 193.829 144.147ZM197.368 85.4835L110.194 76.1282L199.917 109.127C199.559 101.199 198.708 93.3021 197.368 85.4835ZM183.249 42.0491L110.194 76.1282L190.916 59.7096C188.853 53.6148 186.288 47.7071 183.249 42.0491V42.0491Z" fill="black"/>
<path d="M185.808 137.895C185.808 137.895 181.179 136.304 179.802 135.333C178.424 134.361 174.902 130.77 174.083 128.003C173.376 125.449 172.906 122.834 172.68 120.191C172.474 118.047 171.59 117.493 170.294 119.154C168.999 120.814 168.578 123.511 168.934 125.254C169.29 126.997 170.363 128.988 170.221 129.337C170.08 129.685 169.878 130.374 169.878 130.374C169.878 130.374 165.725 129.89 163.413 129.337C161.1 128.783 159.26 128.574 159.122 129.681C158.985 130.788 159.461 132.518 159.599 133.694C159.736 134.871 161.504 140.056 162.392 141.228C163.021 142.14 163.751 142.976 164.567 143.72C165.112 144.134 165.112 144.479 166.407 144.618C167.505 144.718 168.596 144.88 169.677 145.102C170.153 145.241 170.629 145.725 172.877 145.655C174.29 145.606 175.698 145.468 177.094 145.241L183.835 147.795L185.808 137.895Z" fill="white" stroke="#263238" stroke-width="0.75" stroke-miterlimit="10"/>
<path d="M183.628 136.578L180.835 148.887L185.4 150.752L187.712 137.963L183.628 136.578Z" fill="white" stroke="#263238" stroke-width="0.75" stroke-miterlimit="10"/>
<path d="M195.125 138.932L186.214 136.718L182.945 151.377L195.074 157.124L195.125 156.013V138.932Z" fill="#51B0BA" stroke="#26382A" stroke-width="0.75" stroke-miterlimit="10"/>
<path d="M169.604 130.98C169.604 130.98 168.99 134.723 168.99 135.594C168.99 136.466 170.895 138.915 171.565 139.05" stroke="#263238" stroke-width="0.75" stroke-miterlimit="10"/>
<path d="M168.239 140.386C168.239 140.386 169.196 140.731 168.921 141.563C168.647 142.395 166.604 143.567 165.652 144.121C164.7 144.674 164.365 144.604 163.271 143.981C162.628 143.62 162.141 143.028 161.907 142.321C162.593 142.304 163.277 142.235 163.953 142.116L168.239 140.386Z" fill="white" stroke="#263238" stroke-width="0.75" stroke-miterlimit="10"/>
<path d="M160.41 138.583C160.41 138.583 160.41 141.763 161.16 142.042C161.877 142.323 162.64 142.464 163.409 142.456C163.885 142.387 167.085 141.28 167.699 140.866C168.312 140.452 168.926 139.559 168.587 138.722L168.244 137.894C167.209 138.074 166.161 138.166 165.112 138.169C163.396 138.169 160.551 137.615 160.345 137.824C160.139 138.034 160.41 138.583 160.41 138.583Z" fill="white" stroke="#263238" stroke-width="0.75" stroke-miterlimit="10"/>
<path d="M159.379 134.286C159.243 134.374 159.133 134.498 159.061 134.645C158.99 134.791 158.958 134.955 158.971 135.118C158.971 135.741 158.156 137.606 159.109 138.229C160.061 138.852 163.056 139.336 163.669 139.336C164.283 139.336 167.891 138.029 168.23 137.885C168.569 137.741 168.573 136.499 168.436 136.016C168.298 135.532 167.076 135.393 167.076 135.393C167.076 135.393 161.841 135.266 159.379 134.286Z" fill="white" stroke="#263238" stroke-width="0.75" stroke-miterlimit="10"/>
<path d="M161.159 130.076C161.159 130.076 163.339 131.736 163.733 131.875L167.071 133.052C167.071 133.052 167.5 133.257 167.5 134.089C167.493 134.447 167.359 134.791 167.122 135.057C166.886 135.324 166.563 135.495 166.213 135.54C165.535 135.679 163.081 136.093 162.198 135.749C160.993 135.144 159.833 134.451 158.727 133.675C158.113 133.239 158.045 132.703 158.383 131.932C158.678 131.187 158.929 130.424 159.134 129.649" fill="white"/>
<path d="M161.159 130.076C161.159 130.076 163.339 131.736 163.733 131.875L167.071 133.052C167.071 133.052 167.5 133.257 167.5 134.089C167.493 134.447 167.359 134.791 167.122 135.057C166.886 135.324 166.563 135.495 166.213 135.54C165.535 135.679 163.081 136.093 162.198 135.749C160.993 135.144 159.833 134.451 158.727 133.675C158.113 133.239 158.045 132.703 158.383 131.932C158.678 131.187 158.929 130.424 159.134 129.649" stroke="#263238" stroke-width="0.75" stroke-miterlimit="10"/>
<path d="M172.251 30.9637C172.251 30.9637 167.57 32.406 165.909 32.4234C164.249 32.4408 159.307 31.6086 157.059 29.8395C155.013 28.1878 153.126 26.3437 151.421 24.3317C150.027 22.7064 148.989 22.7805 148.886 24.8938C148.783 27.0072 149.997 29.443 151.267 30.65C152.537 31.8569 154.566 32.8286 154.656 33.2034C154.746 33.5781 154.974 34.2492 154.974 34.2492C154.974 34.2492 151.318 36.3102 149.117 37.2252C146.916 38.1403 145.303 39.0641 145.827 40.0445C146.35 41.0249 147.727 42.1491 148.512 43.0249C149.297 43.9008 153.708 47.0686 155.102 47.5043C156.137 47.8713 157.209 48.1184 158.299 48.2407C158.981 48.2407 159.157 48.537 160.311 47.8878C161.259 47.3176 162.238 46.804 163.245 46.3496C163.713 46.1797 164.378 46.293 166.163 44.9073C167.285 44.0314 168.352 43.0855 169.359 42.075L176.309 40.1708L172.251 30.9637Z" fill="white" stroke="#263238" stroke-width="0.75" stroke-miterlimit="10"/>
<path d="M169.72 31.1808L174.503 42.8412L179.283 41.6647L173.834 29.891L169.72 31.1808Z" fill="white" stroke="#263238" stroke-width="0.75" stroke-miterlimit="10"/>
<path d="M180.418 26.3012L171.902 29.7653L177.643 43.6175L190.797 41.125L190.205 40.1926L180.418 26.3012Z" fill="#FF0A0A" stroke="#263238" stroke-width="0.75" stroke-miterlimit="10"/>
<path d="M155.089 34.9372C155.089 34.9372 156.732 38.3359 157.234 39.068C157.736 39.8 160.666 40.641 161.318 40.349" stroke="#263238" stroke-width="0.75" stroke-miterlimit="10"/>
<path d="M159.38 43.3711C159.38 43.3711 160.354 43.0879 160.607 43.9245C160.86 44.7611 159.873 46.9224 159.414 47.9377C158.955 48.9529 158.642 49.0967 157.398 49.2449C156.668 49.3327 155.933 49.1382 155.338 48.7002C155.887 48.2815 156.403 47.8212 156.883 47.3233L159.38 43.3711Z" fill="white" stroke="#263238" stroke-width="0.75" stroke-miterlimit="10"/>
<path d="M151.988 46.5317C151.988 46.5317 153.807 49.12 154.562 48.9021C155.306 48.7064 156.007 48.3709 156.63 47.913C156.977 47.5731 158.947 44.7844 159.204 44.0829C159.461 43.3813 159.449 42.292 158.698 41.817L157.947 41.3421C157.208 42.1009 156.409 42.7961 155.557 43.4205C154.172 44.4227 151.529 45.6646 151.481 45.9522C151.434 46.2398 151.988 46.5317 151.988 46.5317Z" fill="white" stroke="#263238" stroke-width="0.75" stroke-miterlimit="10"/>
<path d="M148.696 43.654C148.637 43.8064 148.619 43.9722 148.645 44.134C148.671 44.2959 148.739 44.4476 148.842 44.5734C149.198 45.0788 149.602 47.0789 150.734 47.0222C151.867 46.9656 154.596 45.5887 155.08 45.227C155.565 44.8653 157.757 41.6626 157.959 41.3489C158.161 41.0352 157.44 40.0417 157.054 39.7105C156.668 39.3794 155.591 40.0112 155.591 40.0112C155.591 40.0112 151.228 42.9916 148.696 43.654Z" fill="white" stroke="#263238" stroke-width="0.75" stroke-miterlimit="10"/>
<path d="M147.723 39.1734C147.723 39.1734 150.443 39.2344 150.855 39.108C151.267 38.9817 154.244 38.0928 154.244 38.0928C154.244 38.0928 154.695 38.0187 155.171 38.6941C155.372 38.9905 155.46 39.3509 155.419 39.7083C155.378 40.0657 155.21 40.3959 154.948 40.6375C154.476 41.156 152.721 42.9382 151.803 43.1822C150.475 43.4019 149.133 43.5243 147.787 43.5482C147.054 43.5482 146.68 43.1604 146.5 42.3412C146.312 41.5625 146.078 40.7957 145.801 40.0449" fill="white"/>
<path d="M147.723 39.1734C147.723 39.1734 150.443 39.2344 150.855 39.108C151.267 38.9817 154.244 38.0928 154.244 38.0928C154.244 38.0928 154.695 38.0187 155.171 38.6941C155.372 38.9905 155.46 39.3509 155.419 39.7083C155.378 40.0657 155.21 40.3959 154.948 40.6375C154.476 41.156 152.721 42.9382 151.803 43.1822C150.475 43.4019 149.133 43.5243 147.787 43.5482C147.054 43.5482 146.68 43.1604 146.5 42.3412C146.312 41.5625 146.078 40.7957 145.801 40.0449" stroke="#263238" stroke-width="0.75" stroke-miterlimit="10"/>
<path d="M22.451 136.33C22.451 136.33 27.0802 134.74 28.4574 133.773C29.8346 132.805 33.344 129.206 34.1592 126.444C34.8785 123.891 35.3583 121.275 35.5921 118.631C35.7937 116.487 36.6818 115.934 37.9732 117.594C39.2646 119.254 39.6893 121.951 39.3332 123.694C38.9771 125.437 37.9046 127.428 38.0461 127.773C38.1877 128.117 38.3851 128.81 38.3851 128.81C38.3851 128.81 42.5381 128.326 44.8548 127.773C47.1716 127.219 49.0078 127.01 49.1451 128.117C49.2824 129.224 48.8019 130.953 48.6689 132.13C48.5359 133.306 46.7597 138.492 45.8759 139.668C45.2456 140.58 44.5143 141.414 43.6964 142.156C43.1516 142.592 43.1516 142.919 41.8602 143.054C40.7628 143.156 39.6715 143.317 38.591 143.538C38.1148 143.677 37.6386 144.161 35.3905 144.091C33.9762 144.042 32.5663 143.903 31.1688 143.677L24.4288 146.235L22.451 136.33Z" fill="white" stroke="#263238" stroke-width="0.75" stroke-miterlimit="10"/>
<path d="M24.6306 135.014L27.4193 147.324L22.8587 149.193L20.5419 136.4L24.6306 135.014Z" fill="white" stroke="#263238" stroke-width="0.75" stroke-miterlimit="10"/>
<path d="M13.1275 137.367L22.0385 135.153L25.3077 149.812L13.1833 155.559L13.1275 154.448V137.367Z" fill="#70DA74" stroke="#263238" stroke-width="0.75" stroke-miterlimit="10"/>
<path d="M38.655 129.415C38.655 129.415 39.2686 133.149 39.2686 134.047C39.2686 134.945 37.3594 137.367 36.6944 137.507" stroke="#263238" stroke-width="0.75" stroke-miterlimit="10"/>
<path d="M40.0153 138.818C40.0153 138.818 39.0628 139.167 39.3331 139.995C39.6034 140.823 41.6498 141.999 42.6023 142.553C43.5547 143.106 43.8894 143.036 44.9877 142.413C45.6302 142.055 46.1159 141.464 46.3477 140.757C45.6627 140.74 44.98 140.67 44.3055 140.548L40.0153 138.818Z" fill="white" stroke="#263238" stroke-width="0.75" stroke-miterlimit="10"/>
<path d="M47.832 137.023C47.832 137.023 47.832 140.204 47.0855 140.478C46.3705 140.768 45.6073 140.916 44.8373 140.914C44.3611 140.844 41.1606 139.742 40.5471 139.323C39.9335 138.905 39.32 138.016 39.6633 137.18L40.0022 136.352C41.0368 136.532 42.0844 136.623 43.1341 136.626C44.8502 136.626 47.6947 136.073 47.9006 136.282C48.1065 136.491 47.832 137.023 47.832 137.023Z" fill="white" stroke="#263238" stroke-width="0.75" stroke-miterlimit="10"/>
<path d="M48.8653 132.736C49.007 132.818 49.1225 132.939 49.1985 133.086C49.2745 133.233 49.3078 133.398 49.2944 133.563C49.2944 134.187 50.1138 136.051 49.1614 136.675C48.2089 137.298 45.1886 137.773 44.5751 137.773C43.9616 137.773 40.3534 136.465 40.0145 136.322C39.6756 136.178 39.6756 134.936 39.8129 134.452C39.9501 133.969 41.1729 133.834 41.1729 133.834C41.1729 133.834 46.4156 133.703 48.8653 132.736Z" fill="white" stroke="#263238" stroke-width="0.75" stroke-miterlimit="10"/>
<path d="M47.0988 128.517C47.0988 128.517 44.9193 130.173 44.5246 130.312C44.1299 130.452 41.1867 131.489 41.1867 131.489C41.1867 131.489 40.7577 131.698 40.7577 132.526C40.7643 132.884 40.8982 133.229 41.1346 133.495C41.371 133.762 41.6942 133.933 42.0448 133.977C42.727 134.116 45.1767 134.53 46.0648 134.186C47.2746 133.581 48.4389 132.886 49.5485 132.107C50.162 131.693 50.2307 131.14 49.8874 130.364C49.5949 129.619 49.3456 128.856 49.1409 128.081" fill="white"/>
<path d="M47.0988 128.517C47.0988 128.517 44.9193 130.173 44.5246 130.312C44.1299 130.452 41.1867 131.489 41.1867 131.489C41.1867 131.489 40.7577 131.698 40.7577 132.526C40.7643 132.884 40.8982 133.229 41.1346 133.495C41.371 133.762 41.6942 133.933 42.0448 133.977C42.727 134.116 45.1767 134.53 46.0648 134.186C47.2746 133.581 48.4389 132.886 49.5485 132.107C50.162 131.693 50.2307 131.14 49.8874 130.364C49.5949 129.619 49.3456 128.856 49.1409 128.081" stroke="#263238" stroke-width="0.75" stroke-miterlimit="10"/>
<path d="M27.4836 35.1038C27.4836 35.1038 32.16 36.5461 33.8246 36.5635C35.4893 36.581 40.4231 35.7487 42.6755 33.9796C44.721 32.3279 46.6086 30.4838 48.3129 28.4719C49.7073 26.8466 50.7455 26.9206 50.8442 29.034C50.9429 31.1473 49.733 33.5831 48.4674 34.7901C47.2017 35.9971 45.1639 36.9688 45.078 37.3435C44.9922 37.7182 44.7606 38.3893 44.7606 38.3893C44.7606 38.3893 48.4159 40.446 50.6168 41.3654C52.8177 42.2848 54.4309 43.1998 53.9074 44.1802C53.384 45.1607 52.0069 46.2849 51.2217 47.1607C50.4366 48.0365 46.0262 51.2087 44.6319 51.6445C43.5972 52.0114 42.5249 52.2585 41.4356 52.3809C40.7534 52.3809 40.5775 52.6772 39.4235 52.0236C38.4731 51.4578 37.4935 50.9443 36.4889 50.4854C36.0213 50.3198 35.3563 50.4287 33.5672 49.0475C32.4469 48.1709 31.3809 47.225 30.3752 46.2151L23.425 44.311L27.4836 35.1038Z" fill="white" stroke="#263238" stroke-width="0.75" stroke-miterlimit="10"/>
<path d="M30.01 35.3221L25.2263 46.9824L20.447 45.8059L25.8956 34.0323L30.01 35.3221Z" fill="#EAEE3A" stroke="#263238" stroke-width="0.2" stroke-miterlimit="10"/>
<path d="M19.3109 30.4413L27.8271 33.9055L22.0867 47.7576L8.93272 45.2652L9.52477 44.3283L19.3109 30.4413Z" fill="#263238" stroke="#263238" stroke-width="0.75" stroke-miterlimit="10"/>
<path d="M44.6282 39.0564C44.6282 39.0564 42.985 42.4552 42.4831 43.1829C41.9811 43.9105 39.0508 44.7559 38.3987 44.4901" stroke="#263238" stroke-width="0.75" stroke-miterlimit="10"/>
<path d="M40.3453 47.5078C40.3453 47.5078 39.3714 47.2246 39.1183 48.0612C38.8652 48.8978 39.8519 51.0591 40.311 52.07C40.7701 53.0809 41.0832 53.2291 42.3274 53.3772C43.0567 53.4625 43.7911 53.2682 44.3868 52.8326C43.8385 52.4138 43.3222 51.9535 42.8423 51.4556L40.3453 47.5078Z" fill="white" stroke="#263238" stroke-width="0.75" stroke-miterlimit="10"/>
<path d="M47.7426 50.6726C47.7426 50.6726 45.9192 53.2609 45.1684 53.043C44.423 52.8488 43.7211 52.5116 43.1005 52.0495C42.753 51.714 40.7837 48.9209 40.5263 48.2237C40.2689 47.5265 40.2861 46.4285 41.0369 45.9579L41.7877 45.4829C42.5245 46.2423 43.324 46.9362 44.1774 47.557C45.5631 48.5636 48.2059 49.8054 48.2531 50.093C48.3003 50.3806 47.7426 50.6726 47.7426 50.6726Z" fill="white" stroke="#263238" stroke-width="0.75" stroke-miterlimit="10"/>
<path d="M51.0283 47.7885C51.0892 47.9403 51.1082 48.1062 51.0833 48.2682C51.0583 48.4302 50.9904 48.5822 50.8867 48.7079C50.5306 49.2133 50.123 51.2134 48.9947 51.1567C47.8664 51.1001 45.1335 49.7232 44.6487 49.3615C44.1639 48.9998 41.9672 45.7972 41.7699 45.4834C41.5725 45.1697 42.2847 44.1762 42.6751 43.845C43.0655 43.5139 44.1381 44.1413 44.1381 44.1413C44.1381 44.1413 48.4799 47.1392 51.0283 47.7885Z" fill="white" stroke="#263238" stroke-width="0.75" stroke-miterlimit="10"/>
<path d="M52.0066 43.3139C52.0066 43.3139 49.2822 43.3749 48.8704 43.2485C48.4585 43.1221 45.4854 42.2289 45.4854 42.2289C45.4854 42.2289 45.0563 42.1591 44.5587 42.8345C44.3582 43.1308 44.27 43.4907 44.3102 43.8478C44.3504 44.2049 44.5163 44.5353 44.7775 44.7779C45.2537 45.2921 47.0084 47.0786 47.9265 47.3227C49.2545 47.5432 50.5967 47.6641 51.9422 47.6843C52.6759 47.7105 53.0491 47.3009 53.2079 46.4817C53.3966 45.7016 53.6301 44.9334 53.9072 44.181" fill="white"/>
<path d="M52.0066 43.3139C52.0066 43.3139 49.2822 43.3749 48.8704 43.2485C48.4585 43.1221 45.4854 42.2289 45.4854 42.2289C45.4854 42.2289 45.0563 42.1591 44.5587 42.8345C44.3582 43.1308 44.27 43.4907 44.3102 43.8478C44.3504 44.2049 44.5163 44.5353 44.7775 44.7779C45.2537 45.2921 47.0084 47.0786 47.9265 47.3227C49.2545 47.5432 50.5967 47.6641 51.9422 47.6843C52.6759 47.7105 53.0491 47.3009 53.2079 46.4817C53.3966 45.7016 53.6301 44.9334 53.9072 44.181" stroke="#263238" stroke-width="0.75" stroke-miterlimit="10"/>
<path d="M90.3058 98.2723C90.3058 98.2723 87.3026 111.632 87.1824 117.915C87.0623 124.199 87.4055 146.844 87.5214 151.703C87.6372 156.561 89.7394 172.33 89.7394 173.751C89.7394 175.172 90.0913 177.899 90.0913 177.899L89.156 182.997C88.2407 183.716 87.2644 184.35 86.2386 184.893C84.1363 186.078 81.6866 187.621 80.9873 188.448C80.9021 188.548 80.8417 188.667 80.8112 188.795C80.7808 188.924 80.7811 189.058 80.8122 189.186C80.8433 189.314 80.9043 189.432 80.99 189.532C81.0758 189.631 81.1837 189.708 81.3047 189.756C82.1368 190.087 83.0133 190.288 83.9047 190.353C85.8868 190.47 89.156 190.47 90.9064 189.995C92.6568 189.52 94.0598 187.982 94.8749 187.381L95.6944 186.788L95.8102 188.096C96.2031 188.037 96.5927 187.957 96.9772 187.856C97.8337 187.605 98.6565 187.248 99.4269 186.793C99.4269 186.793 99.5428 184.775 99.5428 183.59C99.5428 182.405 98.9593 180.27 98.8434 179.799C98.7276 179.328 98.8434 175.054 98.4959 173.633C98.1484 172.213 97.9124 172.566 97.6765 169.96C97.4405 167.354 99.5427 142.692 99.4269 141.981C99.3111 141.271 102.396 119.907 102.396 119.907C102.396 119.907 108.295 147.794 110.161 153.132C112.027 158.47 112.963 168.779 112.963 169.494C112.963 170.208 114.014 178.618 114.482 179.808C114.949 180.997 116.232 184.666 116.232 184.666C116.232 184.666 118.098 187.512 118.913 188.932C119.729 190.353 122.534 191.547 124.632 191.895C126.73 192.244 128.369 192.37 128.494 189.525C128.618 186.679 127.563 184.784 125.808 183.481C124.053 182.178 123.71 180.993 123.71 180.993C123.837 179.252 123.837 177.505 123.71 175.764C123.474 173.747 122.191 172.204 122.075 168.056C121.959 163.908 121.14 142.095 120.441 138.657C119.741 135.219 118.819 112.22 118.935 109.026C119.051 105.832 118.639 96.9085 118.639 96.9085L90.22 96.5817L90.3058 98.2723Z" fill="#263238" stroke="#263238" stroke-width="0.75" stroke-miterlimit="10"/>
<path d="M101.461 50.5096C101.461 50.5096 97.1235 53.1241 94.0516 54.6666C90.9798 56.2091 87.2301 57.1067 86.8482 57.9826C86.4664 58.8584 79.8379 73.2029 78.5894 75.1507C77.341 77.0984 74.3635 80.9068 74.9384 83.0506C75.5133 85.1944 77.9159 88.1226 79.4518 87.9309C80.9877 87.7392 84.0638 86.8546 85.3123 84.6149C86.5608 82.3752 89.5382 75.1507 89.5382 75.1507C89.5382 75.1507 90.0188 81.8828 89.9201 85.1988C89.8214 88.5148 89.8257 91.2469 89.6326 92.9027C89.4396 94.5585 88.5772 96.6108 88.9591 97.1947C89.3409 97.7786 89.8171 98.3668 90.3062 98.271C90.7953 98.1751 97.9901 98.0749 100.174 98.1707C102.358 98.2666 112.371 98.1707 114.486 98.271C116.601 98.3712 118.425 97.2949 118.613 96.9027C118.802 96.5106 119.193 95.9267 119 93.7829C118.807 91.639 119.193 85.1029 119.768 82.5669C120.342 80.0309 123.8 70.2748 123.8 70.2748C123.8 70.2748 132.926 77.5908 134.848 78.1747C136.77 78.7586 141.953 77.8827 143.682 75.7389C145.411 73.5951 145.985 71.9306 144.93 70.4708C143.875 69.0111 140.031 67.6429 135.998 63.2506C131.965 58.8584 130.42 56.8148 127.645 55.4466C124.869 54.0783 119.193 52.2308 117.846 51.6426C116.498 51.0543 116.129 50.7711 115.271 50.3746C114.413 49.978 112.388 49.2068 108.643 49.1066C106.183 49.107 103.746 49.5831 101.461 50.5096V50.5096Z" fill="#51B0BA" stroke="#263238" stroke-width="0.75" stroke-miterlimit="10"/>
<path d="M87.5994 68.2409C87.7324 68.7115 89.5343 75.1517 89.5343 75.1517L86.8743 69.7965" stroke="#263238" stroke-width="0.75" stroke-miterlimit="10"/>
<path d="M123.817 70.2756C123.418 70.2756 119.643 68.0969 119.643 68.0969" stroke="#263238" stroke-width="0.75" stroke-miterlimit="10"/>
<path d="M117.722 67.8413C117.722 67.8413 119.245 69.8587 120.57 70.2596" stroke="#263238" stroke-width="0.75" stroke-miterlimit="10"/>
<path d="M100.92 56.4944L102.126 61.1176C102.126 61.1176 98.3076 80.5036 97.7069 83.776C97.3412 85.7531 97.0947 87.7511 96.969 89.7587L100.315 96.4909L104.537 89.214C104.537 89.214 104.134 80.033 104.001 72.6908C103.868 65.3486 104.134 61.7974 104.065 61.6056C103.996 61.4139 108.287 58.2025 108.287 58.2025C108.287 58.2025 110.762 55.4138 110.895 54.9388C111.028 54.4639 109.158 55.0739 108.75 55.4835C108.294 55.8756 107.753 56.1535 107.172 56.295C106.591 56.4365 105.985 56.4377 105.404 56.2984C103.662 55.9585 101.384 53.9889 101.049 54.9388C100.849 55.4314 100.804 55.9749 100.92 56.4944V56.4944Z" fill="#263238" stroke="#263238" stroke-width="0.75" stroke-miterlimit="10"/>
<path d="M103.799 48.6062C103.597 48.7413 101.993 49.1509 101.457 50.5104C100.92 51.8699 98.1745 58.1271 97.3722 59.1468C96.5699 60.1664 97.8398 59.7568 98.9124 59.077C99.985 58.3973 100.92 55.748 101.521 56.8983C102.122 58.0487 103.868 58.528 103.868 58.528C103.868 58.528 107.48 57.8483 108.287 57.3036C108.836 56.9139 109.352 56.4765 109.827 55.9964C109.827 55.9964 112.907 60.6893 113.774 61.0945C114.641 61.4997 114.782 60.8243 114.847 60.0749C115.164 57.343 115.679 54.6384 116.387 51.9832C117.245 49.0594 115.584 48.1051 114.512 46.8851C113.439 45.665 112.234 46.4755 111.032 46.6106C109.831 46.7456 103.799 48.6062 103.799 48.6062Z" fill="#51B0BA" stroke="#263238" stroke-width="0.75" stroke-miterlimit="10"/>
<path d="M101.963 27.6648C101.963 27.6648 99.8691 30.8936 100.247 31.6779C100.624 32.4623 100.633 33.4906 100.247 34.0396C99.955 34.4006 99.7419 34.8202 99.6213 35.2708C99.5008 35.7214 99.4756 36.1928 99.5473 36.6541C99.7018 37.9918 98.9295 44.7588 100.092 45.5475C100.84 46.0415 101.646 46.4382 102.49 46.7283C102.49 46.7283 103.808 58.0576 104.275 57.7438C104.743 57.4301 111.414 50.4888 112.187 48.9898C112.959 47.4909 113.903 45.3732 113.903 45.3732C113.903 45.3732 116.537 40.2576 118.086 38.1312C119.634 36.0048 121.419 32.0745 120.879 30.0265C120.338 27.9785 117.545 26.4839 116.228 25.3815C114.911 24.2791 115.765 21.7649 113.903 20.5056C112.041 19.2463 109.797 18.9326 108.325 19.4816C106.854 20.0306 106.776 21.2246 104.992 20.0306C103.207 18.8367 101.508 17.6733 98.7965 19.011C96.0851 20.3487 95.5402 25.0678 97.1662 26.3271C98.7922 27.5863 101.963 27.6648 101.963 27.6648Z" fill="white" stroke="#263238" stroke-width="0.75" stroke-miterlimit="10"/>
<path d="M116.219 25.3815C114.902 24.2834 115.756 21.7649 113.894 20.5056C112.032 19.2463 109.788 18.9326 108.316 19.4816C106.845 20.0306 106.767 21.2246 104.983 20.0306C103.198 18.8367 101.499 17.6733 98.7875 19.011C96.076 20.3487 95.5312 25.0678 97.1572 26.3271C98.7832 27.5863 101.962 27.6648 101.962 27.6648C101.962 27.6648 104.288 26.5624 105.824 25.6996C107.359 24.8368 110.86 26.2486 111.478 26.802C112.096 27.3554 111.169 26.9589 111.015 27.9785C110.86 28.9981 112.795 30.6583 113.649 31.4644C114.503 32.2705 113.495 32.8021 113.263 33.8261C113.031 34.8501 113.958 35.2423 114.503 34.8501C115.048 34.4579 116.747 32.2357 117.369 33.5124C117.991 34.7891 118.917 36.6584 117.214 37.9961C115.511 39.3339 114.267 39.0201 114.267 39.0201C114.267 39.0201 113.713 42.4276 115.322 42.6934C116.157 41.1324 117.073 39.6168 118.064 38.153C119.617 36.031 121.397 32.0962 120.857 30.0483C120.316 28.0003 117.536 26.4839 116.219 25.3815Z" fill="#263238" stroke="#263238" stroke-width="0.75" stroke-miterlimit="10"/>
<path d="M106.145 31.8347C106.639 31.6473 107.167 31.5672 107.694 31.5994" stroke="#263238" stroke-width="0.5" stroke-miterlimit="10"/>
<path d="M102.182 32.6117C101.8 32.6939 101.43 32.8288 101.084 33.0126" stroke="#263238" stroke-width="0.5" stroke-miterlimit="10"/>
<path d="M102.207 30.4634C102.483 30.9991 102.563 31.6163 102.435 32.2064C102.182 33.0779 99.7835 34.982 99.8135 35.3524C99.8435 35.7228 101.221 36.4984 101.195 36.8121C101.169 37.1259 101.083 37.6444 101.083 37.6444" stroke="#263238" stroke-width="0.75" stroke-miterlimit="10"/>
<path d="M107.45 32.9254C107.73 32.9254 107.957 32.6426 107.957 32.2936C107.957 31.9447 107.73 31.6618 107.45 31.6618C107.171 31.6618 106.944 31.9447 106.944 32.2936C106.944 32.6426 107.171 32.9254 107.45 32.9254Z" fill="#263238" stroke="#263238" stroke-width="0.5" stroke-miterlimit="10"/>
<path d="M106.463 33.3252C107.144 33.0356 107.87 32.8704 108.608 32.8372" stroke="#263238" stroke-width="0.75" stroke-miterlimit="10"/>
<path d="M104.675 29.5349C104.675 29.5349 106.335 27.9706 107.622 28.2843C108.909 28.598 109.398 29.8573 109.192 29.8617C108.986 29.866 108.334 28.8943 107.631 28.8203C106.927 28.7462 106.425 29.0861 105.816 29.3998C105.207 29.7135 104.833 29.9314 104.675 29.5349Z" fill="#263238" stroke="#263238" stroke-width="0.5" stroke-miterlimit="10"/>
<path d="M102.319 30.7777C102.3 30.6713 102.259 30.5703 102.199 30.481C102.139 30.3918 102.061 30.3164 101.971 30.2597C101.88 30.203 101.779 30.1663 101.673 30.1519C101.568 30.1375 101.46 30.1459 101.358 30.1763C100.599 30.294 100.024 31.6971 100.256 31.6796C100.487 31.6622 100.74 30.7777 101.333 30.6949C101.925 30.6121 102.319 31.5533 102.319 30.7777Z" fill="#263238" stroke="#263238" stroke-width="0.5" stroke-miterlimit="10"/>
<path d="M101.033 39.4213C101.033 39.4213 102.247 39.2775 103.826 39.0771C105.404 38.8767 107.627 38.5629 107.996 37.4169C108.206 36.8617 108.301 36.2683 108.275 35.674" stroke="#263238" stroke-width="0.75" stroke-miterlimit="10"/>
<path d="M107.42 35.5873C107.882 35.5489 108.348 35.5783 108.802 35.6745" stroke="#263238" stroke-width="0.75" stroke-miterlimit="10"/>
<path d="M113.925 41.2427C113.703 42.3049 113.089 43.2404 112.209 43.8571C110.802 44.7678 100.466 45.8092 100.81 45.94C101.153 46.0707 102.496 46.7243 102.496 46.7243L102.899 50.4499C104.527 48.9864 106.337 47.7469 108.283 46.7635C111.707 44.9595 113.843 44.3626 113.925 41.2427Z" fill="#263238" stroke="#263238" stroke-width="0.5" stroke-miterlimit="10"/>
<path d="M119.69 92.1236C119.69 92.1236 117.768 92.0278 117.288 91.9319C116.807 91.836 115.271 90.3676 114.598 90.4678C113.924 90.568 112.68 91.9319 112.199 93.0822C111.719 94.2326 111.526 94.8252 111.526 94.8252C111.526 94.8252 109.81 96.3851 110.668 97.4396C111.526 98.4941 112.495 98.1237 112.495 98.1237C112.495 98.1237 113.07 99.0998 113.838 99.1957C114.408 99.2598 114.981 99.2933 115.554 99.2959C116.051 99.4506 116.571 99.5169 117.09 99.492C117.5 99.4005 117.891 99.2352 118.244 99.0039C118.652 99.0522 119.062 98.9467 119.398 98.7076C119.75 98.4244 121.453 96.6553 122.333 95.7446L122.852 95.1999L119.69 92.1236Z" fill="white" stroke="#263238" stroke-width="0.75" stroke-miterlimit="10"/>
<path d="M135.727 72.0332C135.727 72.0332 132.175 76.0333 131.008 77.981C129.148 80.9531 127.129 83.8188 124.958 86.5651C123.616 88.125 118.909 91.9334 118.909 91.9334C118.909 91.9334 120.346 95.0533 121.406 95.5413C122.023 95.8294 122.665 96.057 123.324 96.2211L127.185 93.2973C127.185 93.2973 134.479 87.6327 138.34 84.4213C142.201 81.2099 147.56 76.9091 147.946 75.0572C148.332 73.2053 148.04 72.2293 146.122 70.7652C144.929 69.868 143.598 69.1761 142.184 68.7172" fill="#51B0BA"/>
<path d="M135.727 72.0332C135.727 72.0332 132.175 76.0333 131.008 77.981C129.148 80.9531 127.129 83.8188 124.958 86.5651C123.616 88.125 118.909 91.9334 118.909 91.9334C118.909 91.9334 120.346 95.0533 121.406 95.5413C122.023 95.8294 122.665 96.057 123.324 96.2211L127.185 93.2973C127.185 93.2973 134.479 87.6327 138.34 84.4213C142.201 81.2099 147.56 76.9091 147.946 75.0572C148.332 73.2053 148.04 72.2293 146.122 70.7652C144.929 69.868 143.598 69.1761 142.184 68.7172" stroke="#263238" stroke-width="0.75" stroke-miterlimit="10"/>
<path d="M121.9 89.4934C121.9 89.4934 122.758 93.7855 125.739 93.7855" stroke="#263238" stroke-width="0.75" stroke-miterlimit="10"/>
<path d="M80.0526 57.8884C80.0526 57.8884 80.4473 61.3177 80.6489 62.8646C80.7064 63.6441 80.932 64.4013 81.3096 65.0825C81.3096 65.0825 78.1992 72.1415 78.0662 72.3463C77.9332 72.5511 74.6897 78.7342 74.1577 79.4706C73.6257 80.207 72.3729 82.5643 73.1667 84.0458C73.9604 85.5274 75.2174 88.5514 76.8735 88.6167C78.5295 88.6821 80.8463 87.6755 82.4508 86.7343C84.0554 85.7932 84.5702 85.1875 84.7032 82.499C84.8362 79.8105 84.7676 74.9694 85.2352 72.4116C85.7029 69.8538 86.0289 67.1828 86.3593 66.1588C86.6896 65.1348 88.6117 65.4877 89.2724 65.0825C89.9331 64.6773 90.5294 63.8058 91.7221 63.2655C92.7565 62.866 93.8815 62.7738 94.9656 62.9997C95.3646 63.1347 96.0896 62.5291 95.8923 61.7883C95.6949 61.0475 94.3692 60.6467 93.0435 60.7774C91.7178 60.9081 90.5294 61.3177 90.1991 61.1173C89.8687 60.9168 89.5384 57.3481 89.5384 57.3481C89.5384 57.3481 84.8191 57.7534 83.1802 57.8187C81.5413 57.8841 80.0526 57.8884 80.0526 57.8884Z" fill="white" stroke="#263238" stroke-width="0.75" stroke-miterlimit="10"/>
<path d="M87.3323 55.2656C87.3323 55.2656 87.4009 59.7058 87.4009 60.1067C87.4018 60.2002 87.4217 60.2925 87.4592 60.3779C87.4968 60.4632 87.5514 60.5398 87.6194 60.6028C87.6875 60.6658 87.7676 60.7138 87.8547 60.7439C87.9419 60.774 88.0343 60.7855 88.126 60.7777C88.4606 60.7124 89.3187 61.0479 89.5203 60.0413C89.722 59.0348 90.1124 56.2068 89.915 55.5358C89.7177 54.8647 87.9287 54.5946 87.3323 55.2656Z" fill="white" stroke="#263238" stroke-width="0.75" stroke-miterlimit="10"/>
<path d="M87.3332 55.2658C87.3332 55.2658 85.218 54.7299 84.6217 55.0654C84.0253 55.4009 84.952 60.1766 85.0164 60.5775C85.0808 60.9784 86.0118 61.1832 86.4065 61.0481C86.8012 60.913 87.4018 60.6472 87.4018 60.1069C87.4018 59.5666 87.3332 55.2658 87.3332 55.2658Z" fill="white" stroke="#263238" stroke-width="0.75" stroke-miterlimit="10"/>
<path d="M84.1578 55.2007C84.1578 55.2007 82.7677 54.9305 82.3687 55.4011C81.9697 55.8717 81.841 56.5427 81.9697 57.7541C82.1448 58.9463 82.5023 60.1034 83.0294 61.1834C83.2954 61.5886 84.1578 61.654 84.6855 61.4535C85.2132 61.2531 85.0158 60.582 85.0158 60.582C85.0158 60.582 84.7498 60.3119 84.6855 58.229C84.6211 56.1462 84.6211 55.0699 84.6211 55.0699L84.1578 55.2007Z" fill="white" stroke="#263238" stroke-width="0.75" stroke-miterlimit="10"/>
<path d="M81.8413 56.0057C81.5753 56.0711 79.9192 56.1408 79.8549 56.8118C79.7905 57.4829 80.3826 60.6463 80.6486 60.9819C80.9146 61.3174 81.6396 61.1823 81.9056 61.0472C82.1716 60.9121 82.635 60.7117 82.5663 60.3065C82.4977 59.9012 81.8413 56.0057 81.8413 56.0057Z" fill="white" stroke="#263238" stroke-width="0.75" stroke-miterlimit="10"/>
<path d="M82.369 69.318C81.8934 69.241 81.4457 69.04 81.0697 68.7344C80.6936 68.4289 80.4022 68.0294 80.2239 67.575C79.3143 69.6317 78.1559 72.2331 78.0787 72.3682C77.9457 72.5686 74.7023 78.7561 74.1703 79.4925C73.6383 80.2289 72.3855 82.5862 73.1792 84.0678C73.9729 85.5493 75.23 88.5733 76.886 88.6387C78.5421 88.704 80.8588 87.6975 82.4634 86.7563C84.068 85.8151 84.5828 85.2094 84.7158 82.5209C84.8488 79.8324 84.7801 74.9913 85.2478 72.4335C85.4709 71.1786 85.6768 69.8975 85.8484 68.7907C84.7312 69.1857 83.5511 69.3645 82.369 69.318V69.318Z" fill="#51B0BA" stroke="#263238" stroke-width="0.75" stroke-miterlimit="10"/>
<path d="M85.4156 61.9222C85.4156 61.9222 84.2872 62.9288 84.1585 63.8046C84.0916 64.3643 84.2077 64.9308 84.4889 65.4168" fill="white"/>
<path d="M85.4156 61.9222C85.4156 61.9222 84.2872 62.9288 84.1585 63.8046C84.0916 64.3643 84.2077 64.9308 84.4889 65.4168" stroke="#263238" stroke-width="0.75" stroke-miterlimit="10"/>
</svg>
