<svg width="24" height="24" viewBox="0 0 24 24" fill="none" xmlns="http://www.w3.org/2000/svg">
<circle cx="12" cy="12" r="12" fill="#EB5757"/>
<path d="M11.2547 16.109C12.3025 16.109 13.281 15.7681 14.0764 15.2L17.0685 18.1921C17.2073 18.3309 17.3904 18.4004 17.5798 18.4004C17.9901 18.4004 18.2868 18.0848 18.2868 17.6808C18.2868 17.4914 18.2236 17.3146 18.0848 17.1758L15.1116 14.1963C15.7365 13.3757 16.109 12.3594 16.109 11.2547C16.109 8.5845 13.9249 6.40039 11.2547 6.40039C8.57819 6.40039 6.40039 8.5845 6.40039 11.2547C6.40039 13.9248 8.57819 16.109 11.2547 16.109ZM11.2547 15.0611C9.16525 15.0611 7.44826 13.3378 7.44826 11.2547C7.44826 9.17156 9.16525 7.44826 11.2547 7.44826C13.3378 7.44826 15.0611 9.17156 15.0611 11.2547C15.0611 13.3378 13.3378 15.0611 11.2547 15.0611Z" fill="white"/>
</svg>
