<svg width="24" height="24" viewBox="0 0 24 24" fill="none" xmlns="http://www.w3.org/2000/svg">
<path fill-rule="evenodd" clip-rule="evenodd" d="M20.2735 8.66651C19.9074 6.11551 17.8845 4.09251 15.3335 3.72651V8.66651H20.2735ZM21.1665 10.3325H14.5005C14.0405 10.3325 13.6665 9.96051 13.6665 9.49951V2.83251C13.6665 2.37251 14.0405 1.99951 14.5005 1.99951C18.6355 1.99951 22.0005 5.36451 22.0005 9.49951C22.0005 9.96051 21.6264 10.3325 21.1665 10.3325ZM12.9344 11.9775H21.0834C21.6254 11.9775 22.0494 12.4495 21.9954 12.9885C21.4514 18.4145 16.5794 22.5665 10.8814 21.9365C6.29645 21.4305 2.56945 17.7035 2.06245 13.1185C1.43445 7.42051 5.58445 2.54751 11.0114 2.00451C11.5514 1.95051 12.0224 2.37351 12.0224 2.91551V11.0665C12.0224 11.5695 12.4304 11.9775 12.9344 11.9775Z" fill="#443434" fill-opacity="0.9"/>
</svg>
