<svg width="12" height="12" viewBox="0 0 12 12" fill="none" xmlns="http://www.w3.org/2000/svg">
<path fill-rule="evenodd" clip-rule="evenodd" d="M9.7152 3.34509C9.85738 3.2029 9.85721 2.96341 9.70939 2.81559L9.18403 2.29023C9.02989 2.13609 8.79915 2.13981 8.65454 2.28442L5.99957 4.93939L3.3446 2.28442C3.20241 2.14224 2.96292 2.14241 2.8151 2.29023L2.28974 2.81559C2.1356 2.96973 2.13932 3.20047 2.28394 3.34509L4.93891 6.00005L2.28394 8.65502C2.14175 8.79721 2.14192 9.0367 2.28974 9.18452L2.8151 9.70988C2.96924 9.86402 3.19998 9.8603 3.3446 9.71568L5.99957 7.06071L8.65454 9.71568C8.79672 9.85787 9.03621 9.8577 9.18403 9.70988L9.70939 9.18452C9.86353 9.03038 9.85981 8.79964 9.7152 8.65502L7.06023 6.00005L9.7152 3.34509Z" fill="white"/>
</svg>
