<svg width="50" height="8" viewBox="0 0 50 8" fill="none" xmlns="http://www.w3.org/2000/svg">
<path d="M46.0431 6.10888L45.7987 5.97189L45.5542 6.10888L43.904 7.0337L44.2727 5.17563L44.3271 4.90136L44.1219 4.71141L42.732 3.42465L44.6113 3.20151L44.8893 3.1685L45.0064 2.91423L45.7987 1.19482L46.5909 2.91423L46.708 3.1685L46.9861 3.20151L48.8653 3.42465L47.4754 4.71141L47.2702 4.90136L47.3246 5.17563L47.6933 7.0337L46.0431 6.10888Z" stroke="#418D95"/>
<path d="M43.2059 8L45.8021 6.54505V0L44.5557 2.70499L41.6011 3.05583L43.7857 5.07831L43.2059 8Z" fill="#418D95"/>
<path d="M35.3992 6.54505L32.8031 8L33.3829 5.07831L31.1982 3.05583L34.1529 2.70499L35.3992 0L36.6456 2.70499L39.6002 3.05583L37.4156 5.07831L37.9954 8L35.3992 6.54505Z" fill="#418D95"/>
<path d="M25.0013 6.54505L22.4052 8L22.9849 5.07831L20.8003 3.05583L23.7549 2.70499L25.0013 0L26.2476 2.70499L29.2023 3.05583L27.0177 5.07831L27.5974 8L25.0013 6.54505Z" fill="#418D95"/>
<path d="M14.6009 6.54505L12.0048 8L12.5845 5.07831L10.3999 3.05583L13.3546 2.70499L14.6009 0L15.8473 2.70499L18.8019 3.05583L16.6173 5.07831L17.1971 8L14.6009 6.54505Z" fill="#418D95"/>
<path d="M4.20101 6.54505L1.60487 8L2.18461 5.07831L0 3.05583L2.95466 2.70499L4.20101 0L5.44736 2.70499L8.40202 3.05583L6.21741 5.07831L6.79715 8L4.20101 6.54505Z" fill="#418D95"/>
</svg>
