<svg width="24" height="24" viewBox="0 0 24 24" fill="none" xmlns="http://www.w3.org/2000/svg">
<path fill-rule="evenodd" clip-rule="evenodd" d="M12.7148 2.30071L20.4238 10.1847C20.7898 10.5607 20.9998 11.0847 20.9998 11.6237V19.9997C20.9998 21.1027 20.1528 21.9997 19.1118 21.9997H15.9998V12.9997C15.9998 12.4477 15.5528 11.9997 14.9998 11.9997H8.99976C8.44676 11.9997 7.99976 12.4477 7.99976 12.9997V21.9997H4.88876C3.84776 21.9997 2.99976 21.1027 2.99976 19.9997V11.6237C2.99976 11.0847 3.20976 10.5607 3.57476 10.1857L11.2848 2.30071C11.6618 1.91571 12.3378 1.91571 12.7148 2.30071ZM14 21.0001H9.99996V14.0001H14V21.0001Z" fill="#564848"/>
</svg>
