<svg width="30" height="30" viewBox="0 0 30 30" fill="none" xmlns="http://www.w3.org/2000/svg">
<path fill-rule="evenodd" clip-rule="evenodd" d="M0 26.2613C0 28.3256 1.67812 30 3.73875 30H26.2612C28.3256 30 30 28.3219 30 26.2613V3.73875C29.9995 2.74733 29.6054 1.79665 28.9044 1.0956C28.2034 0.39456 27.2527 0.000496831 26.2612 0H3.73875C2.74732 0.000496831 1.79665 0.39456 1.0956 1.0956C0.394559 1.79665 0.000496831 2.74733 0 3.73875L0 26.2613ZM1.875 23.43V14.0719C1.87377 13.7017 1.9456 13.335 2.08639 12.9927C2.22718 12.6504 2.43415 12.3392 2.69544 12.0771C2.95673 11.8149 3.26719 11.6069 3.60903 11.465C3.95087 11.3231 4.31737 11.25 4.6875 11.25H6.5625C8.1 11.25 9.375 12.5138 9.375 14.0719V23.4281C9.37623 23.7983 9.3044 24.165 9.16361 24.5073C9.02282 24.8496 8.81585 25.1608 8.55456 25.4229C8.29327 25.6851 7.98281 25.8931 7.64097 26.035C7.29913 26.1769 6.93263 26.25 6.5625 26.25H4.6875C3.15 26.25 1.875 24.9862 1.875 23.4281V23.43ZM11.25 23.445V6.555C11.25 5.025 12.51 3.75 14.0625 3.75H15.9375C17.4769 3.75 18.75 5.00625 18.75 6.555V23.445C18.75 24.975 17.49 26.25 15.9375 26.25H14.0625C12.525 26.25 11.25 24.9937 11.25 23.445ZM20.625 23.4431V10.3069C20.6265 9.56193 20.9235 8.848 21.4507 8.32177C21.978 7.79554 22.6926 7.5 23.4375 7.5H25.3125C26.8519 7.5 28.125 8.75625 28.125 10.3069V23.4431C28.1235 24.1881 27.8265 24.902 27.2993 25.4282C26.772 25.9545 26.0574 26.25 25.3125 26.25H23.4375C21.8981 26.25 20.625 24.9938 20.625 23.4431Z" fill="#316A70"/>
</svg>
