<svg width="299" height="114" viewBox="0 0 299 114" fill="none" xmlns="http://www.w3.org/2000/svg">
<path fill-rule="evenodd" clip-rule="evenodd" d="M286.83 62.4316C295.719 47.3625 308.794 28.8574 287.393 16.737C265.867 4.5452 223.188 10.0957 189.569 7.34619C161.862 5.08014 132.84 -4.02875 108.014 2.06633C83.1728 8.16486 89.4399 25.9752 72.1099 36.1831C53.6689 47.0454 14.6822 43.5 4.82151 58.5C-2.30013 67.5 -4.2175 99.5 18.2431 106.5C40.8682 117.172 82.0351 112.899 114.386 113.776C138.402 114.427 161.648 113.79 184.343 110.119C206.534 106.53 225.825 100.772 242.361 93.0775C261.603 84.124 279.663 74.582 286.83 62.4316Z" fill="#B9DFE3"/>
</svg>
