<svg width="30" height="30" viewBox="0 0 30 30" fill="none" xmlns="http://www.w3.org/2000/svg">
<path fill-rule="evenodd" clip-rule="evenodd" d="M5.52563 8.83159L14.5819 4.30346C14.712 4.23844 14.8555 4.20459 15.0009 4.20459C15.1464 4.20459 15.2899 4.23844 15.42 4.30346L24.4744 8.83159C24.5521 8.87056 24.6175 8.9304 24.6632 9.00441C24.7089 9.07841 24.7331 9.16368 24.7331 9.25065C24.7331 9.33763 24.7089 9.42289 24.6632 9.4969C24.6175 9.57091 24.5521 9.63074 24.4744 9.66971L15.4181 14.1978C15.288 14.2629 15.1445 14.2967 14.9991 14.2967C14.8536 14.2967 14.7101 14.2629 14.58 14.1978L5.52563 9.66971C5.44787 9.63074 5.38249 9.57091 5.3368 9.4969C5.29111 9.42289 5.26691 9.33763 5.26691 9.25065C5.26691 9.16368 5.29111 9.07841 5.3368 9.00441C5.38249 8.9304 5.44787 8.87056 5.52563 8.83159V8.83159ZM4.6875 12.0791C4.68734 11.9987 4.70784 11.9197 4.74705 11.8495C4.78626 11.7793 4.84284 11.7204 4.91138 11.6784C4.97991 11.6365 5.05809 11.6128 5.1384 11.6097C5.21872 11.6067 5.29847 11.6243 5.37 11.661L13.4569 15.786C13.6108 15.8644 13.74 15.9838 13.8304 16.131C13.9207 16.2783 13.9686 16.4476 13.9688 16.6203V25.3278C13.9686 25.407 13.9484 25.4848 13.9101 25.5541C13.8717 25.6233 13.8165 25.6817 13.7494 25.7238C13.6824 25.766 13.6058 25.7904 13.5268 25.7949C13.4478 25.7995 13.3689 25.7839 13.2975 25.7497L5.22 21.8816C5.06053 21.8052 4.92591 21.6853 4.83169 21.5356C4.73746 21.386 4.68748 21.2128 4.6875 21.036V12.0791ZM25.3125 12.0791V21.036C25.3122 21.2125 25.262 21.3853 25.1678 21.5346C25.0736 21.6838 24.9392 21.8035 24.78 21.8797L16.7025 25.7497C16.6311 25.7839 16.5522 25.7995 16.4732 25.7949C16.3942 25.7904 16.3176 25.766 16.2506 25.7238C16.1836 25.6817 16.1283 25.6233 16.0899 25.5541C16.0516 25.4848 16.0314 25.407 16.0313 25.3278V16.6203C16.0314 16.4476 16.0793 16.2783 16.1696 16.131C16.26 15.9838 16.3892 15.8644 16.5431 15.786L24.63 11.661C24.7015 11.6243 24.7813 11.6067 24.8616 11.6097C24.9419 11.6128 25.0201 11.6365 25.0886 11.6784C25.1572 11.7204 25.2138 11.7793 25.253 11.8495C25.2922 11.9197 25.3127 11.9987 25.3125 12.0791V12.0791Z" fill="#316A70"/>
</svg>
