<svg width="24" height="24" viewBox="0 0 24 24" fill="none" xmlns="http://www.w3.org/2000/svg">
<path fill-rule="evenodd" clip-rule="evenodd" d="M19 18.0342C19 18.5862 18.551 19.0342 18 19.0342H6C5.449 19.0342 5 18.5862 5 18.0342V11.0342H19V18.0342ZM8 6.03418C8.552 6.03418 9 6.48118 9 7.03418C9 7.58718 8.552 8.03418 8 8.03418C7.448 8.03418 7 7.58718 7 7.03418C7 6.48118 7.448 6.03418 8 6.03418ZM12 6.03418C12.552 6.03418 13 6.48118 13 7.03418C13 7.58718 12.552 8.03418 12 8.03418C11.448 8.03418 11 7.58718 11 7.03418C11 6.48118 11.448 6.03418 12 6.03418ZM18 3.03418H6C4.346 3.03418 3 4.38018 3 6.03418V9.03418V11.0342V18.0342C3 19.6882 4.346 21.0342 6 21.0342H18C19.654 21.0342 21 19.6882 21 18.0342V11.0342V9.03418V6.03418C21 4.38018 19.654 3.03418 18 3.03418Z" fill="#343C44"/>
</svg>
