<svg width="50" height="8" viewBox="0 0 50 8" fill="none" xmlns="http://www.w3.org/2000/svg">
<path d="M46.0435 6.10887L45.799 5.97188L45.5546 6.10887L43.9044 7.03369L44.2731 5.17562L44.3275 4.90136L44.1223 4.7114L42.7324 3.42464L44.6116 3.2015L44.8896 3.16849L45.0068 2.91423L45.799 1.19481L46.5913 2.91423L46.7084 3.16849L46.9864 3.2015L48.8657 3.42464L47.4757 4.7114L47.2706 4.90136L47.325 5.17562L47.6937 7.03369L46.0435 6.10887Z" stroke="#418D95"/>
<path d="M43.2059 7.99999L45.802 6.54504V0L44.5557 2.70499L41.601 3.05583L43.7856 5.07831L43.2059 7.99999Z" fill="#418D95"/>
<path d="M35.3992 6.54504L32.8031 7.99999L33.3828 5.07831L31.1982 3.05583L34.1529 2.70499L35.3992 0L36.6455 2.70499L39.6002 3.05583L37.4156 5.07831L37.9953 7.99999L35.3992 6.54504Z" fill="#418D95"/>
<path d="M25.0008 6.54504L22.4046 7.99999L22.9844 5.07831L20.7998 3.05583L23.7544 2.70499L25.0008 0L26.2471 2.70499L29.2018 3.05583L27.0172 5.07831L27.5969 7.99999L25.0008 6.54504Z" fill="#418D95"/>
<path d="M14.6009 6.54504L12.0048 7.99999L12.5845 5.07831L10.3999 3.05583L13.3545 2.70499L14.6009 0L15.8472 2.70499L18.8019 3.05583L16.6173 5.07831L17.197 7.99999L14.6009 6.54504Z" fill="#418D95"/>
<path d="M4.201 6.54504L1.60487 7.99999L2.18461 5.07831L0 3.05583L2.95465 2.70499L4.201 0L5.44734 2.70499L8.40199 3.05583L6.21739 5.07831L6.79713 7.99999L4.201 6.54504Z" fill="#418D95"/>
</svg>
