<svg width="50" height="8" viewBox="0 0 50 8" fill="none" xmlns="http://www.w3.org/2000/svg">
<path d="M46.0435 6.10888L45.799 5.97189L45.5546 6.10888L43.9044 7.0337L44.2731 5.17563L44.3275 4.90136L44.1223 4.71141L42.7324 3.42465L44.6116 3.20151L44.8896 3.1685L45.0068 2.91423L45.799 1.19482L46.5913 2.91423L46.7084 3.1685L46.9864 3.20151L48.8656 3.42465L47.4757 4.71141L47.2706 4.90136L47.325 5.17563L47.6937 7.0337L46.0435 6.10888Z" stroke="#418D95"/>
<path d="M43.2059 8L45.802 6.54505V0L44.5557 2.70499L41.6011 3.05583L43.7857 5.07831L43.2059 8Z" fill="#418D95"/>
<path d="M35.3992 6.54505L32.8031 8L33.3829 5.07831L31.1982 3.05583L34.1529 2.70499L35.3992 0L36.6456 2.70499L39.6002 3.05583L37.4156 5.07831L37.9954 8L35.3992 6.54505Z" fill="#418D95"/>
<path d="M25.0008 6.54505L22.4047 8L22.9844 5.07831L20.7998 3.05583L23.7545 2.70499L25.0008 0L26.2472 2.70499L29.2018 3.05583L27.0172 5.07831L27.5969 8L25.0008 6.54505Z" fill="#418D95"/>
<path d="M14.6009 6.54505L12.0048 8L12.5845 5.07831L10.3999 3.05583L13.3545 2.70499L14.6009 0L15.8472 2.70499L18.8019 3.05583L16.6173 5.07831L17.197 8L14.6009 6.54505Z" fill="#418D95"/>
<path d="M4.201 6.54505L1.60487 8L2.18461 5.07831L0 3.05583L2.95465 2.70499L4.201 0L5.44735 2.70499L8.402 3.05583L6.21739 5.07831L6.79713 8L4.201 6.54505Z" fill="#418D95"/>
</svg>
