<svg width="84" height="84" viewBox="0 0 84 84" fill="none" xmlns="http://www.w3.org/2000/svg">
<g clip-path="url(#clip0_851_3591)">
<path d="M13.4072 77.4966V83.9869H75.6591V77.4966C75.6591 67.5413 60.3816 62.4882 44.7694 62.5079C29.2557 62.5276 13.4072 66.9572 13.4072 77.4966Z" fill="#00BFA5"/>
<path d="M23.5003 60.5063L21.3347 52.4016L14.759 62.5079V71.3935H42.2165V62.5079H26.2893C24.9703 62.5079 23.8153 61.681 23.5003 60.5063Z" fill="#00BFA5"/>
<path opacity="0.54" d="M61.2216 78.4481H63.1903V84H61.2216V78.4481Z" fill="black"/>
<path d="M44.5331 59.2266H38.5743V65.52C38.5743 68.3681 41.0025 70.6781 43.995 70.6781H45.0778C48.0703 70.6781 50.4984 68.3681 50.4984 65.52V59.2266H44.5331V59.2266Z" fill="#99674F"/>
<path d="M65.625 33.7771C65.625 33.7771 69.4903 34.4465 69.4903 38.6137C69.4903 42.2887 66.6684 43.739 63.8466 43.739V33.7771H65.625ZM23.4412 33.7771C23.4412 33.7771 19.5759 34.4465 19.5759 38.6137C19.5759 42.2887 22.3978 43.739 25.2197 43.739V33.7771H23.4412Z" fill="#99674F"/>
<path d="M44.5331 6.50342C27.8643 6.50342 23.5068 19.425 23.5068 37.5769C23.5068 56.3981 35.6015 61.2675 44.5331 61.2675C53.3334 61.2675 65.5593 56.5425 65.5593 37.5769C65.5593 19.4184 61.2018 6.50342 44.5331 6.50342V6.50342Z" fill="#BF8F68"/>
<path d="M37.6097 39.2568C37.6097 41.1337 36.3562 42.6496 34.8009 42.6496C33.2522 42.6496 31.9856 41.1271 31.9856 39.2568C31.9856 37.3799 33.2456 35.8574 34.8009 35.8574C36.3497 35.8574 37.6097 37.3799 37.6097 39.2568V39.2568ZM51.45 39.2568C51.45 41.1337 52.7034 42.6496 54.2653 42.6496C55.814 42.6496 57.074 41.1271 57.074 39.2568C57.074 37.3799 55.814 35.8574 54.2653 35.8574C52.71 35.8574 51.45 37.3799 51.45 39.2568ZM50.6165 50.7215H38.4497C37.754 50.7215 37.4522 51.1874 37.9115 51.8962C38.5547 52.8806 40.9565 54.7706 44.5331 54.7706C48.1097 54.7706 50.5115 52.8806 51.1547 51.8962C51.614 51.194 51.3122 50.7215 50.6165 50.7215Z" fill="#49362E"/>
<path d="M47.4731 45.5503C46.4362 45.8456 45.36 45.9834 44.5331 45.9834C43.7062 45.9834 42.63 45.839 41.5931 45.5503C41.1534 45.4256 40.9762 45.8456 41.1337 46.1212C41.4618 46.6987 42.7875 47.8668 44.5331 47.8668C46.2787 47.8668 47.6043 46.6987 47.9325 46.1212C48.09 45.8456 47.9128 45.4256 47.4731 45.5503V45.5503Z" fill="#99674F"/>
<path d="M45.0318 4.12778C45.0318 4.12778 44.7037 4.11466 44.5659 4.12122C44.4281 4.12122 44.1 4.12778 44.1 4.12778C26.1122 4.4756 20.6915 15.2972 20.6915 22.7981C20.6915 30.089 20.6981 35.4506 20.6981 35.4506C20.6981 35.4506 20.9868 35.1553 21.5118 34.7418C22.0762 34.3022 22.6997 34.0593 22.6997 34.0593L23.6053 40.1493L29.5968 27.6281C29.6362 27.5493 29.715 27.5034 29.8003 27.5165L33.3506 27.9103C36.9206 28.304 40.5103 28.5009 44.0934 28.5075V28.514C44.2509 28.514 44.4018 28.5075 44.5593 28.5075C44.7168 28.5075 44.8678 28.514 45.0253 28.514V28.5075C48.6084 28.4943 52.1981 28.304 55.7681 27.9103L59.3184 27.5165C59.4037 27.51 59.4825 27.5559 59.5218 27.6281L65.5134 40.1493L66.419 34.0593C66.419 34.0593 67.0425 34.3087 67.6068 34.7418C68.1384 35.1553 68.4206 35.4506 68.4206 35.4506C68.4206 35.4506 68.4272 30.0956 68.4272 22.7981C68.4403 15.2972 63.0197 4.4756 45.0318 4.12778V4.12778Z" fill="#6D4C41"/>
<path d="M29.9316 18.3882C29.1966 17.8304 28.3501 17.5219 27.556 17.6597C26.9654 17.7647 26.7751 17.8369 25.3576 18.4866C23.7301 18.4932 24.7801 15.4482 25.1607 14.4966C25.1804 14.4441 27.5888 8.92505 28.0285 8.0063C28.5469 6.92349 28.3894 6.05724 27.6413 5.6963C26.8407 5.30911 25.9679 6.2738 25.7054 6.83161C25.2919 7.68474 24.2222 9.64693 23.356 11.6616C23.356 11.6616 23.2576 11.8519 23.1985 11.8716C22.7522 12.0291 22.6604 11.491 22.6604 11.491C23.0213 9.88318 24.1107 6.04411 24.3601 5.16474C24.7932 3.6488 24.5438 2.79568 23.7563 2.55943C22.7129 2.25099 22.1354 3.05161 21.7154 4.53474C21.466 5.42068 20.7441 8.13755 19.9829 10.651C19.3857 11.2285 19.0969 10.5001 19.0969 10.5001C19.5038 8.01943 20.0354 5.44036 20.1272 4.66599C20.2847 3.41255 20.0419 2.74318 19.2282 2.57255C18.3882 2.39536 17.9026 2.98599 17.6269 4.42318C17.4366 5.44036 16.7935 8.6363 16.5113 10.2835C16.0257 11.1694 15.5269 10.441 15.5269 10.441C15.7697 8.0063 15.7697 7.46818 15.796 6.84474C15.8419 5.52568 15.5729 5.03349 14.746 5.02036C13.8272 5.00068 13.5779 5.76193 13.4204 6.91693C13.3154 7.69786 12.6919 12.961 12.1866 14.9822C11.4057 18.0863 12.016 21.0854 13.3744 22.1944C15.2841 23.7563 18.2635 24.6291 21.1379 23.9991C21.8335 23.8482 23.0279 22.9426 23.6644 22.621C23.7629 22.5685 25.8169 21.2035 26.0794 21.1247C26.7554 20.9279 27.4247 20.7507 27.9169 20.6522C28.4485 20.5407 28.9866 20.3963 29.2294 20.3044C30.5616 19.8122 30.6076 18.9066 29.9316 18.3882V18.3882Z" fill="#BF8F68"/>
<path d="M24.3075 22.2141C24.3075 22.2141 22.8375 23.1394 22.1222 25.9547L12.0488 24.8457C12.0488 24.8457 11.2613 20.1075 11.9044 16.6622L24.3075 22.2141V22.2141Z" fill="#BF8F68"/>
<path d="M30.03 89.355L25.3509 88.1344C16.7409 85.8835 11.8519 87.9638 9.29904 69.1163L6.60186 47.6963C6.42467 46.2394 6.49029 44.7628 6.79873 43.3322L11.0709 23.5856C11.1392 23.2636 11.3265 22.9793 11.5954 22.7894C11.8643 22.5996 12.195 22.5184 12.5212 22.5619L22.365 23.835C23.054 23.9269 23.5528 24.5306 23.5069 25.2263L22.4175 43.9819C22.3453 45.2813 22.4634 46.5938 22.7784 47.8603L26.3353 62.3438L30.03 89.355V89.355Z" fill="#00BFA5"/>
</g>
<defs>
<clipPath id="clip0_851_3591">
<rect width="84" height="84" fill="white"/>
</clipPath>
</defs>
</svg>
