<svg width="48" height="16" viewBox="0 0 48 16" fill="none" xmlns="http://www.w3.org/2000/svg">
<path fill-rule="evenodd" clip-rule="evenodd" d="M3.33035 13.7107C3.56825 12.7405 3.80062 11.657 4.10722 10.5951C4.28174 9.99081 4.15537 9.59723 3.65179 9.2145C2.87131 8.62167 2.1186 7.98449 1.4131 7.30487C1.17977 7.0801 0.958242 6.61135 1.04122 6.35385C1.12724 6.08703 1.57106 5.80993 1.88946 5.76654C2.9225 5.62589 3.96886 5.56575 5.01218 5.52445C5.52679 5.50409 5.8018 5.31758 5.98108 4.8218C6.32479 3.87155 6.70181 2.92777 7.15038 2.02377C7.30625 1.70956 7.71981 1.32264 8.00681 1.32968C8.3058 1.33711 8.70261 1.72421 8.86552 2.04318C9.26671 2.82862 9.62355 3.65079 9.87534 4.49503C10.1161 5.30178 10.593 5.57127 11.384 5.58459C12.2686 5.59963 13.1587 5.66396 14.0319 5.8006C14.3828 5.8556 14.9281 6.12091 14.9686 6.3607C15.0264 6.70366 14.7933 7.20248 14.5229 7.47273C13.853 8.14188 13.1082 8.74042 12.3603 9.3247C11.9106 9.67602 11.7311 10.0051 11.9245 10.605C12.2242 11.535 12.4416 12.498 12.6066 13.4622C12.6663 13.8116 12.5885 14.4063 12.3713 14.5276C12.0746 14.6935 11.5214 14.6347 11.1902 14.4598C10.2695 13.9732 9.42752 13.3379 8.50867 12.8473C8.22739 12.6969 7.73066 12.6977 7.44842 12.8475C6.50007 13.3507 5.61891 13.9789 4.68293 14.5076C3.98066 14.9042 3.34596 14.5536 3.33035 13.7107Z" fill="#333333"/>
<path fill-rule="evenodd" clip-rule="evenodd" d="M46.4069 7.7709C46.4789 6.9649 45.9279 6.7279 45.6649 6.7279H41.9739L41.9239 6.7309C41.7069 6.7329 41.5619 6.5289 41.6119 6.2859C41.6659 5.7609 41.9239 4.2199 41.9239 3.9059C41.9239 3.5539 41.8699 3.1979 41.8079 2.8489C41.7479 2.5089 41.6209 2.1889 41.3829 1.9299C41.1269 1.6519 40.8109 1.5539 40.4509 1.6739C40.0969 1.7909 39.8619 2.0299 39.8439 2.4269C39.8179 2.9669 39.8089 3.5089 39.7869 4.0509C39.7846 4.1251 39.7658 4.19786 39.7319 4.2639C39.1989 5.2219 38.6319 6.0379 38.1079 6.9999C37.9849 7.2269 37.8469 7.2879 37.5809 7.3499C37.3309 7.3799 36.5679 7.6229 36.5679 7.6229C36.433 7.66941 36.3152 7.75521 36.2294 7.86926C36.1437 7.98332 36.0941 8.12041 36.0869 8.2629V12.4129C36.0869 12.6859 36.2929 12.9849 36.5469 13.0829C36.5469 13.0829 37.4749 13.4379 37.5809 13.4999C38.1909 13.8639 38.6309 13.9639 39.2459 14.3199C39.3023 14.3535 39.3663 14.3724 39.4319 14.3749C40.9369 14.3779 42.2169 14.3749 43.7219 14.3749C43.9399 14.3749 44.6559 14.2799 44.8389 13.4999C45.0239 12.7149 44.2739 12.4729 44.2739 12.4729C44.2739 12.4729 45.2029 12.5859 45.3559 11.7189C45.4999 10.9049 44.7939 10.6609 44.7629 10.6489C45.0499 10.5989 45.7029 10.4599 45.8399 9.8559C45.9799 9.2399 45.5499 8.8459 45.3179 8.6879C45.6679 8.6799 46.3449 8.4639 46.4069 7.7709V7.7709ZM33.5869 12.9959C33.5868 13.0616 33.5998 13.1267 33.6253 13.1873C33.6508 13.2478 33.6882 13.3026 33.7353 13.3484C33.7825 13.3943 33.8383 13.4301 33.8996 13.4539C33.9608 13.4777 34.0262 13.4889 34.0919 13.4869H35.0819C35.2134 13.4875 35.34 13.4365 35.4344 13.3449C35.5288 13.2533 35.5835 13.1284 35.5869 12.9969V7.9769C35.5869 7.91127 35.5738 7.8463 35.5482 7.78585C35.5227 7.7254 35.4852 7.67071 35.4381 7.625C35.391 7.5793 35.3352 7.54353 35.274 7.5198C35.2128 7.49608 35.1475 7.48489 35.0819 7.4869H34.0919C33.9604 7.48633 33.8339 7.53731 33.7395 7.6289C33.6451 7.72049 33.5903 7.84541 33.5869 7.9769V12.9949V12.9959Z" fill="#333333"/>
</svg>
