<svg width="30" height="30" viewBox="0 0 30 30" fill="none" xmlns="http://www.w3.org/2000/svg">
<path fill-rule="evenodd" clip-rule="evenodd" d="M26.25 23.4431C26.25 24.4755 25.3954 25.3125 24.3704 25.3125L5.62964 25.3125C4.59154 25.3125 3.75 24.4631 3.75 23.4431V11.2508C3.75 10.7326 4.17938 10.3125 4.68815 10.3125L25.3118 10.3125C25.83 10.3125 26.25 10.7452 26.25 11.2508V23.4431ZM28.125 7.49122C28.125 8.01383 27.7127 8.4375 27.1907 8.4375L2.80925 8.4375C2.29328 8.4375 1.875 8.03618 1.875 7.49122V6.5625C1.875 5.52697 2.71865 4.6875 3.76284 4.6875L26.2372 4.6875C27.2798 4.6875 28.125 5.51975 28.125 6.5625V7.49122Z" fill="#316A70"/>
</svg>
